<svg id="Layer_1" enable-background="new 0 0 256 256" height="512" viewBox="0 0 256 256" width="512" xmlns="http://www.w3.org/2000/svg"><path d="m19.233 38h140v180h-140z" fill="#a4c9ff"/><path d="m19.233 24v14h140v-14c0-8.837-7.163-16-16-16h-108c-8.836 0-16 7.163-16 16z" fill="#4671c6"/><path d="m159.233 232v-14h-140v14c0 8.837 7.163 16 16 16h108c8.837 0 16-7.163 16-16z" fill="#4671c6"/><path d="m143.233 250h-108c-9.925 0-18-8.075-18-18v-208c0-9.925 8.075-18 18-18h108c9.925 0 18 8.075 18 18v208c0 9.925-8.075 18-18 18zm-108-240c-7.72 0-14 6.28-14 14v208c0 7.72 6.28 14 14 14h108c7.72 0 14-6.28 14-14v-208c0-7.72-6.28-14-14-14z" fill="#3762cc"/><path d="m101.233 241h-24c-3.314 0-6-2.686-6-6v-4c0-3.314 2.686-6 6-6h24c3.314 0 6 2.686 6 6v4c0 3.314-2.686 6-6 6z" fill="#f9cfcf"/><path d="m104.233 28h-30c-2.761 0-5-2.239-5-5 0-2.761 2.239-5 5-5h30c2.761 0 5 2.239 5 5 0 2.761-2.238 5-5 5z" fill="#6bdddd"/><path d="m159.233 40h-140c-1.104 0-2-.896-2-2v-14c0-9.925 8.075-18 18-18h108c9.925 0 18 8.075 18 18v14c0 1.104-.895 2-2 2zm-138-4h136v-12c0-7.72-6.28-14-14-14h-108c-7.72 0-14 6.28-14 14z" fill="#3762cc"/><path d="m143.233 250h-108c-9.925 0-18-8.075-18-18v-14c0-1.104.896-2 2-2h140c1.104 0 2 .896 2 2v14c0 9.925-8.075 18-18 18zm-122-30v12c0 7.72 6.28 14 14 14h108c7.72 0 14-6.28 14-14v-12z" fill="#3762cc"/><path d="m143.233 250h-108c-9.925 0-18-8.075-18-18v-208c0-9.925 8.075-18 18-18h108c9.925 0 18 8.075 18 18v208c0 9.925-8.075 18-18 18zm-108-240c-7.72 0-14 6.28-14 14v208c0 7.72 6.28 14 14 14h108c7.72 0 14-6.28 14-14v-208c0-7.72-6.28-14-14-14z" fill="#3762cc"/><circle cx="89.233" cy="114.944" fill="#e0ebfc" r="38.06"/><path d="m115.358 88.163-6.162 1.445c-.258.06-.492.195-.674.388l-1.606 1.701c-.091.096-.167.205-.226.323l-.909 1.818c-.124.249-.323.453-.568.585l-.002.001c-.648.349-.898 1.153-.561 1.808l.839 1.632c.37.719 1.285.955 1.956.503l1.666-1.121c.553-.372 1.295-.285 1.747.204l.933 1.011c.412.446.475 1.112.156 1.628l-2.156 3.482c-.246.398-.681.64-1.149.64h-4.322c-.531 0-1.013.311-1.231.795l-1.186 2.627c-.079.175-.12.364-.12.556v.882c0 .318.112.626.316.869l3.688 4.391c.318.378.816.553 1.301.456l5.523-1.109c.23-.046.445-.152.622-.306l2.694-2.348c.115-.1.246-.18.388-.237l1.706-.679c.472-.188 1.01-.095 1.391.24l2.844 2.499c.292.257.459.626.459 1.015v2.731c0 .504-.281.966-.728 1.199l-5.021 2.611c-.131.068-.272.114-.418.137l-7.409 1.14c-.068.01-.137.016-.205.016h-3.498c-.493 0-.946.268-1.184.7l-.923 1.679-1.421 2.733c-.083.159-.196.3-.334.415l-1.28 1.066c-.399.333-.573.862-.446 1.366.221.873.548 2.157.626 2.389.084.251.638 1.562.96 2.317.147.344.428.61.78.738l2.678.974c.434.158.757.526.857.977l.263 1.182c.035.156.041.316.02.474l-.546 4.042c-.011.08-.014.16-.011.24l.182 4.143c.044 1.01 1.137 1.605 2.021 1.114 11.697-6.494 19.614-18.971 19.614-33.299 0-10.258-4.059-19.567-10.658-26.411-.327-.344-.815-.48-1.276-.372z" fill="#6bdddd"/><path d="m80.778 152.059-.743-2.228-1.586-2.042-2.078-2.229c-.307-.329-.477-.762-.477-1.211v-2.014c0-.814-.553-1.524-1.343-1.723l-1.597-.402c-.142-.036-.287-.054-.433-.054h-2.533c-.471 0-.923-.187-1.256-.52l-1.472-1.472c-.252-.252-.422-.574-.489-.924l-.406-2.134c-.081-.425-.314-.805-.656-1.071l-.842-.654c-.675-.524-1.628-.493-2.268.074l-.001.001c-.645.572-1.608.599-2.283.062l-1.219-.968c-.204-.162-.369-.366-.485-.599l-1.267-2.543c-.284-.571-.241-1.25.114-1.78l1.158-1.73c.214-.319.525-.56.887-.687l1.476-.518c.425-.149.778-.455.987-.855l1.579-3.03 1.679-2.574c.246-.377.34-.834.262-1.278l-.354-2.016-.404-3.253c-.057-.456.066-.917.341-1.285l1.133-1.512c.481-.641 1.331-.881 2.076-.585l.819.325c.209.083.431.125.655.125h3.309c.594 0 1.148-.297 1.478-.791l2.029-3.043c.195-.292.298-.635.298-.985v-3.698c0-.438-.162-.861-.455-1.187l-2.779-3.094c-.18-.2-.403-.357-.652-.458l-2.86-1.163c-1.195-.486-1.976-1.648-1.976-2.938v-1.908c0-.549-.254-1.068-.688-1.404l-1.655-1.282c-.682-.528-1.649-.494-2.285.089-7.584 6.957-12.34 16.948-12.34 28.051-.002 18.113 12.652 33.27 29.602 37.115z" fill="#6bdddd"/><path d="m65.129 125.629 4.585.964c.317.067.602.239.81.488l1.052 1.266c.239.288.581.471.953.51l2.9.309c.303.032.587.16.813.364l1.895 1.718c.3.272.472.659.472 1.064v.001c0 .876-.777 1.548-1.643 1.422l-4.703-.684c-.257-.037-.499-.144-.701-.308l-2.465-2.009c-.209-.17-.365-.395-.452-.65l-.328-.96c-.199-.582-.745-.972-1.36-.972h-1.183c-.793 0-1.437-.643-1.437-1.437v-1.087h.792z" fill="#6bdddd"/><path d="m89.233 155.003c-22.089 0-40.06-17.971-40.06-40.06s17.971-40.06 40.06-40.06 40.06 17.971 40.06 40.06-17.971 40.06-40.06 40.06zm0-76.119c-19.884 0-36.06 16.176-36.06 36.06s16.176 36.06 36.06 36.06 36.06-16.176 36.06-36.06-16.176-36.06-36.06-36.06z" fill="#3762cc"/><path d="m106.092 171.649c-.151 0-.301-.034-.444-.101l-9.285-4.334c-.375-.175-.603-.528-.61-.944-.004-.212.054-.416.169-.592l5.576-8.595c.199-.307.501-.475.854-.475.055 0 .111.005.166.012.408.061.744.357.858.756l.838 2.922 2.052-.809c17.759-6.995 29.464-24.67 29.128-43.983-.08-4.537-.822-9.058-2.209-13.435-6.189-19.535-23.925-32.66-44.133-32.66-4.032 0-8.068.539-11.997 1.6-20.382 5.508-34.357 24.255-33.985 45.59.072 4.098.686 8.191 1.826 12.166 3.057 10.659 9.797 19.915 18.98 26.062 1.116.748 1.797 1.991 1.821 3.326.012.69-.157 1.377-.489 1.984-.529.968-1.446 1.674-2.514 1.937-.304.074-.618.112-.934.112-.795 0-1.565-.234-2.226-.676-10.773-7.204-18.68-18.056-22.264-30.558-1.336-4.659-2.056-9.456-2.139-14.258-.448-25.619 16.452-47.725 41.097-53.756 4.147-1.015 8.403-1.53 12.651-1.53 11.3 0 22.624 3.72 31.887 10.475 9.542 6.959 16.463 16.6 20.014 27.881 1.605 5.097 2.465 10.361 2.557 15.646.405 23.135-13.729 44.008-35.17 51.941l-1.744.645.662 2.306c.027.092.041.187.042.281.007.368-.168.694-.481.897-.167.109-.359.167-.554.167z" fill="#ffea92"/><path d="m130.857 205.197h-83.248c-3.154 0-5.71-2.557-5.71-5.71v-14.95c0-3.154 2.557-5.71 5.71-5.71h83.248c3.154 0 5.71 2.557 5.71 5.71v14.95c.001 3.153-2.556 5.71-5.71 5.71z" fill="#f9a7a7"/><path d="m130.857 207.196h-83.248c-4.251 0-7.71-3.459-7.71-7.71v-14.95c0-4.251 3.459-7.71 7.71-7.71h83.248c4.251 0 7.71 3.459 7.71 7.71v14.95c0 4.251-3.459 7.71-7.71 7.71zm-83.248-26.37c-2.046 0-3.71 1.664-3.71 3.71v14.95c0 2.046 1.664 3.71 3.71 3.71h83.248c2.046 0 3.71-1.664 3.71-3.71v-14.95c0-2.046-1.664-3.71-3.71-3.71z" fill="#3762cc"/><path d="m112.646 74.259c0-12.933-10.503-23.455-23.413-23.455s-23.413 10.522-23.413 23.455c0 9.707 5.918 18.051 14.328 21.612.54.229.969.661 1.21 1.196l6.795 15.096c.419.931 1.742.931 2.161 0l6.795-15.096c.241-.535.669-.967 1.21-1.196 8.409-3.561 14.327-11.906 14.327-21.612z" fill="#f9a7a7"/><ellipse cx="89.233" cy="74.259" fill="#ffea92" rx="14.688" ry="14.73"/><path d="m89.233 114.861c-1.27 0-2.383-.72-2.904-1.877l-6.795-15.096c-.037-.083-.097-.146-.165-.176-9.445-4-15.549-13.206-15.549-23.454 0-14.036 11.4-25.455 25.413-25.455s25.413 11.419 25.413 25.455c0 10.248-6.104 19.454-15.548 23.454-.069.029-.129.093-.167.177l-6.794 15.095c-.521 1.158-1.634 1.877-2.904 1.877zm0-62.057c-11.808 0-21.413 9.625-21.413 21.455 0 8.638 5.146 16.398 13.108 19.771.999.423 1.8 1.21 2.253 2.216l6.052 13.445 6.051-13.444c.455-1.008 1.256-1.795 2.256-2.218 7.961-3.371 13.106-11.132 13.106-19.77 0-11.83-9.605-21.455-21.413-21.455z" fill="#3762cc"/><path d="m236.767 133.332h-17.581c-4.028-6.522-11.239-10.87-19.467-10.87h-19.996-28.099c-2.374 0-4.299 1.925-4.299 4.299v8.117c0 2.374 1.925 4.299 4.299 4.299-2.374 0-4.299 1.925-4.299 4.299v8.117c0 2.374 1.925 4.299 4.299 4.299-2.374 0-4.299 1.925-4.299 4.299v8.117c0 2.374 1.925 4.299 4.299 4.299h-38.415c-4.465 0-8.084 3.619-8.084 8.084v.547c0 4.465 3.619 8.084 8.084 8.084h43.65 35.632 7.228c8.229 0 15.44-4.348 19.468-10.87h17.581z" fill="#f9cfcf"/><path d="m199.718 189.322h-7.228-29.131l11.035 8.22c.855.637 1.877.979 2.924.979h14.098c.99 0 1.957-.305 2.783-.877l14.98-10.378c-2.883 1.314-6.084 2.056-9.461 2.056z" fill="#f9cfcf"/><g fill="#3762cc"><path d="m199.719 191.322h-86.51c-5.561 0-10.085-4.523-10.085-10.084v-.547c0-5.561 4.524-10.085 10.085-10.085h32.55c-.28-.713-.435-1.488-.435-2.299v-8.117c0-1.66.646-3.173 1.699-4.299-1.054-1.126-1.699-2.639-1.699-4.299v-8.117c0-1.66.646-3.173 1.699-4.299-1.054-1.127-1.699-2.64-1.699-4.3v-8.117c0-3.474 2.825-6.299 6.299-6.299h48.096c8.307 0 15.908 4.043 20.553 10.871h16.495c1.104 0 2 .896 2 2v45.119c0 1.104-.896 2-2 2h-16.495c-4.645 6.829-12.247 10.872-20.553 10.872zm-86.51-16.716c-3.355 0-6.085 2.729-6.085 6.085v.547c0 3.354 2.729 6.084 6.085 6.084h86.51c7.288 0 13.929-3.709 17.765-9.922.364-.59 1.009-.949 1.702-.949h15.581v-41.119h-15.581c-.693 0-1.338-.359-1.702-.949-3.836-6.213-10.477-9.922-17.765-9.922h-48.096c-1.268 0-2.299 1.031-2.299 2.299v8.117c0 1.269 1.031 2.3 2.299 2.3 1.104 0 2 .896 2 2s-.896 2-2 2c-1.268 0-2.299 1.031-2.299 2.299v8.117c0 1.268 1.031 2.299 2.299 2.299 1.104 0 2 .896 2 2s-.896 2-2 2c-1.268 0-2.299 1.031-2.299 2.299v8.117c0 1.268 1.031 2.299 2.299 2.299 1.104 0 2 .896 2 2s-.896 2-2 2h-38.414z"/><path d="m191.417 200.521h-14.099c-1.487 0-2.911-.476-4.119-1.374l-11.034-8.221c-.691-.515-.976-1.415-.704-2.232.271-.818 1.036-1.371 1.898-1.371h36.359c2.996 0 5.899-.631 8.632-1.877.94-.429 2.056-.069 2.568.832.512.9.251 2.043-.601 2.632l-14.979 10.378c-1.163.806-2.52 1.233-3.921 1.233zm-22.025-9.199 6.196 4.616c.512.381 1.11.582 1.73.582h14.099c.584 0 1.152-.18 1.645-.521l6.751-4.677c-.031 0-.063 0-.094 0z"/><path d="m164.763 174.606h-13.14c-1.104 0-2-.896-2-2s.896-2 2-2h13.14c1.104 0 2 .896 2 2s-.896 2-2 2z"/><path d="m164.763 157.892h-13.14c-1.104 0-2-.896-2-2s.896-2 2-2h13.14c1.104 0 2 .896 2 2s-.896 2-2 2z"/><path d="m164.763 141.195h-13.14c-1.104 0-2-.896-2-2s.896-2 2-2h13.14c1.104 0 2 .896 2 2s-.896 2-2 2z"/></g></svg>