<?xml version="1.0" encoding="iso-8859-1"?>
<!-- Generator: Adobe Illustrator 19.0.0, SVG Export Plug-In . SVG Version: 6.00 Build 0)  -->
<svg version="1.1" id="Capa_1" xmlns="http://www.w3.org/2000/svg" xmlns:xlink="http://www.w3.org/1999/xlink" x="0px" y="0px"
	 viewBox="0 0 512 512" style="enable-background:new 0 0 512 512;" xml:space="preserve">
<g>
	<g>
		<g>
			<path d="M459.36,100.64l-96-96C360.341,1.645,356.253-0.024,352,0H96c-26.51,0-48,21.49-48,48v416c0,26.51,21.49,48,48,48h320
				c26.51,0,48-21.49,48-48V112C464.025,107.747,462.355,103.66,459.36,100.64z M432,464c0,8.837-7.163,16-16,16H96
				c-8.837,0-16-7.163-16-16V48c0-8.837,7.163-16,16-16h240v64c0,17.673,14.327,32,32,32h64V464z"/>
			<path d="M176,176c-26.51,0-48,21.49-48,48c0,26.51,21.49,48,48,48c26.51,0,48-21.49,48-48C224,197.491,202.51,176,176,176z
				 M176,240c-8.837,0-16-7.163-16-16s7.163-16,16-16s16,7.163,16,16S184.837,240,176,240z"/>
			<path d="M176,336c-26.51,0-48,21.49-48,48c0,26.51,21.49,48,48,48c26.51,0,48-21.49,48-48C224,357.491,202.51,336,176,336z
				 M176,400c-8.837,0-16-7.163-16-16s7.163-16,16-16s16,7.163,16,16S184.837,400,176,400z"/>
			<rect x="256" y="176" width="128" height="32"/>
			<rect x="256" y="240" width="64" height="32"/>
			<rect x="256" y="336" width="128" height="32"/>
			<rect x="256" y="400" width="64" height="32"/>
		</g>
	</g>
</g>
<g>
</g>
<g>
</g>
<g>
</g>
<g>
</g>
<g>
</g>
<g>
</g>
<g>
</g>
<g>
</g>
<g>
</g>
<g>
</g>
<g>
</g>
<g>
</g>
<g>
</g>
<g>
</g>
<g>
</g>
</svg>
