<svg width="426" height="655" viewBox="0 0 426 655" fill="none" xmlns="http://www.w3.org/2000/svg">
<path d="M0.5 79C0.5 71.268 6.76801 65 14.5 65H409.5C417.232 65 423.5 71.268 423.5 79V359.5V640C423.5 647.732 417.232 654 409.5 654H14.5C6.76801 654 0.5 647.732 0.5 640V79Z" fill="#F4B40E"/>
<g filter="url(#filter0_d)">
<rect x="21" y="84" width="386" height="552" fill="#F5F1F1"/>
</g>
<circle cx="222.5" cy="202.5" r="72.5" fill="#E25D5D"/>
<rect x="170" y="194" width="100" height="23" fill="#F7EDED"/>
<rect x="232.046" y="156.241" width="100" height="23" transform="rotate(90.6001 232.046 156.241)" fill="#F7EDED"/>
<path d="M132.5 35.4375L184 27.125L189.5 6.125L213.5 0L235 6.125L238.5 27.125L294.5 35.4375L298 84H129L132.5 35.4375Z" fill="#D9CDCD"/>
<path d="M154.23 355.32V362H151.98V344.938H158.273C160.141 344.938 161.602 345.414 162.656 346.367C163.719 347.32 164.25 348.582 164.25 350.152C164.25 351.809 163.73 353.086 162.691 353.984C161.66 354.875 160.18 355.32 158.25 355.32H154.23ZM154.23 353.48H158.273C159.477 353.48 160.398 353.199 161.039 352.637C161.68 352.066 162 351.246 162 350.176C162 349.16 161.68 348.348 161.039 347.738C160.398 347.129 159.52 346.812 158.402 346.789H154.23V353.48ZM174.469 362C174.344 361.75 174.242 361.305 174.164 360.664C173.156 361.711 171.953 362.234 170.555 362.234C169.305 362.234 168.277 361.883 167.473 361.18C166.676 360.469 166.277 359.57 166.277 358.484C166.277 357.164 166.777 356.141 167.777 355.414C168.785 354.68 170.199 354.312 172.02 354.312H174.129V353.316C174.129 352.559 173.902 351.957 173.449 351.512C172.996 351.059 172.328 350.832 171.445 350.832C170.672 350.832 170.023 351.027 169.5 351.418C168.977 351.809 168.715 352.281 168.715 352.836H166.535C166.535 352.203 166.758 351.594 167.203 351.008C167.656 350.414 168.266 349.945 169.031 349.602C169.805 349.258 170.652 349.086 171.574 349.086C173.035 349.086 174.18 349.453 175.008 350.188C175.836 350.914 176.266 351.918 176.297 353.199V359.035C176.297 360.199 176.445 361.125 176.742 361.812V362H174.469ZM170.871 360.348C171.551 360.348 172.195 360.172 172.805 359.82C173.414 359.469 173.855 359.012 174.129 358.449V355.848H172.43C169.773 355.848 168.445 356.625 168.445 358.18C168.445 358.859 168.672 359.391 169.125 359.773C169.578 360.156 170.16 360.348 170.871 360.348ZM182.637 346.25V349.32H185.004V350.996H182.637V358.859C182.637 359.367 182.742 359.75 182.953 360.008C183.164 360.258 183.523 360.383 184.031 360.383C184.281 360.383 184.625 360.336 185.062 360.242V362C184.492 362.156 183.938 362.234 183.398 362.234C182.43 362.234 181.699 361.941 181.207 361.355C180.715 360.77 180.469 359.938 180.469 358.859V350.996H178.16V349.32H180.469V346.25H182.637ZM189.902 362H187.734V349.32H189.902V362ZM187.559 345.957C187.559 345.605 187.664 345.309 187.875 345.066C188.094 344.824 188.414 344.703 188.836 344.703C189.258 344.703 189.578 344.824 189.797 345.066C190.016 345.309 190.125 345.605 190.125 345.957C190.125 346.309 190.016 346.602 189.797 346.836C189.578 347.07 189.258 347.188 188.836 347.188C188.414 347.188 188.094 347.07 187.875 346.836C187.664 346.602 187.559 346.309 187.559 345.957ZM198.645 362.234C196.926 362.234 195.527 361.672 194.449 360.547C193.371 359.414 192.832 357.902 192.832 356.012V355.613C192.832 354.355 193.07 353.234 193.547 352.25C194.031 351.258 194.703 350.484 195.562 349.93C196.43 349.367 197.367 349.086 198.375 349.086C200.023 349.086 201.305 349.629 202.219 350.715C203.133 351.801 203.59 353.355 203.59 355.379V356.281H195C195.031 357.531 195.395 358.543 196.09 359.316C196.793 360.082 197.684 360.465 198.762 360.465C199.527 360.465 200.176 360.309 200.707 359.996C201.238 359.684 201.703 359.27 202.102 358.754L203.426 359.785C202.363 361.418 200.77 362.234 198.645 362.234ZM198.375 350.867C197.5 350.867 196.766 351.188 196.172 351.828C195.578 352.461 195.211 353.352 195.07 354.5H201.422V354.336C201.359 353.234 201.062 352.383 200.531 351.781C200 351.172 199.281 350.867 198.375 350.867ZM208.16 349.32L208.23 350.914C209.199 349.695 210.465 349.086 212.027 349.086C214.707 349.086 216.059 350.598 216.082 353.621V362H213.914V353.609C213.906 352.695 213.695 352.02 213.281 351.582C212.875 351.145 212.238 350.926 211.371 350.926C210.668 350.926 210.051 351.113 209.52 351.488C208.988 351.863 208.574 352.355 208.277 352.965V362H206.109V349.32H208.16ZM222.293 346.25V349.32H224.66V350.996H222.293V358.859C222.293 359.367 222.398 359.75 222.609 360.008C222.82 360.258 223.18 360.383 223.688 360.383C223.938 360.383 224.281 360.336 224.719 360.242V362C224.148 362.156 223.594 362.234 223.055 362.234C222.086 362.234 221.355 361.941 220.863 361.355C220.371 360.77 220.125 359.938 220.125 358.859V350.996H217.816V349.32H220.125V346.25H222.293ZM245.707 355.098H241.699V362H239.438V344.938H245.086C247.008 344.938 248.484 345.375 249.516 346.25C250.555 347.125 251.074 348.398 251.074 350.07C251.074 351.133 250.785 352.059 250.207 352.848C249.637 353.637 248.84 354.227 247.816 354.617L251.824 361.859V362H249.41L245.707 355.098ZM241.699 353.258H245.156C246.273 353.258 247.16 352.969 247.816 352.391C248.48 351.812 248.812 351.039 248.812 350.07C248.812 349.016 248.496 348.207 247.863 347.645C247.238 347.082 246.332 346.797 245.145 346.789H241.699V353.258ZM259.16 362.234C257.441 362.234 256.043 361.672 254.965 360.547C253.887 359.414 253.348 357.902 253.348 356.012V355.613C253.348 354.355 253.586 353.234 254.062 352.25C254.547 351.258 255.219 350.484 256.078 349.93C256.945 349.367 257.883 349.086 258.891 349.086C260.539 349.086 261.82 349.629 262.734 350.715C263.648 351.801 264.105 353.355 264.105 355.379V356.281H255.516C255.547 357.531 255.91 358.543 256.605 359.316C257.309 360.082 258.199 360.465 259.277 360.465C260.043 360.465 260.691 360.309 261.223 359.996C261.754 359.684 262.219 359.27 262.617 358.754L263.941 359.785C262.879 361.418 261.285 362.234 259.16 362.234ZM258.891 350.867C258.016 350.867 257.281 351.188 256.688 351.828C256.094 352.461 255.727 353.352 255.586 354.5H261.938V354.336C261.875 353.234 261.578 352.383 261.047 351.781C260.516 351.172 259.797 350.867 258.891 350.867ZM277.336 355.801C277.336 357.73 276.895 359.285 276.012 360.465C275.129 361.645 273.934 362.234 272.426 362.234C270.887 362.234 269.676 361.746 268.793 360.77V366.875H266.625V349.32H268.605L268.711 350.727C269.594 349.633 270.82 349.086 272.391 349.086C273.914 349.086 275.117 349.66 276 350.809C276.891 351.957 277.336 353.555 277.336 355.602V355.801ZM275.168 355.555C275.168 354.125 274.863 352.996 274.254 352.168C273.645 351.34 272.809 350.926 271.746 350.926C270.434 350.926 269.449 351.508 268.793 352.672V358.73C269.441 359.887 270.434 360.465 271.77 360.465C272.809 360.465 273.633 360.055 274.242 359.234C274.859 358.406 275.168 357.18 275.168 355.555ZM279.527 355.543C279.527 354.301 279.77 353.184 280.254 352.191C280.746 351.199 281.426 350.434 282.293 349.895C283.168 349.355 284.164 349.086 285.281 349.086C287.008 349.086 288.402 349.684 289.465 350.879C290.535 352.074 291.07 353.664 291.07 355.648V355.801C291.07 357.035 290.832 358.145 290.355 359.129C289.887 360.105 289.211 360.867 288.328 361.414C287.453 361.961 286.445 362.234 285.305 362.234C283.586 362.234 282.191 361.637 281.121 360.441C280.059 359.246 279.527 357.664 279.527 355.695V355.543ZM281.707 355.801C281.707 357.207 282.031 358.336 282.68 359.188C283.336 360.039 284.211 360.465 285.305 360.465C286.406 360.465 287.281 360.035 287.93 359.176C288.578 358.309 288.902 357.098 288.902 355.543C288.902 354.152 288.57 353.027 287.906 352.168C287.25 351.301 286.375 350.867 285.281 350.867C284.211 350.867 283.348 351.293 282.691 352.145C282.035 352.996 281.707 354.215 281.707 355.801ZM299.918 351.266C299.59 351.211 299.234 351.184 298.852 351.184C297.43 351.184 296.465 351.789 295.957 353V362H293.789V349.32H295.898L295.934 350.785C296.645 349.652 297.652 349.086 298.957 349.086C299.379 349.086 299.699 349.141 299.918 349.25V351.266ZM305.449 346.25V349.32H307.816V350.996H305.449V358.859C305.449 359.367 305.555 359.75 305.766 360.008C305.977 360.258 306.336 360.383 306.844 360.383C307.094 360.383 307.438 360.336 307.875 360.242V362C307.305 362.156 306.75 362.234 306.211 362.234C305.242 362.234 304.512 361.941 304.02 361.355C303.527 360.77 303.281 359.938 303.281 358.859V350.996H300.973V349.32H303.281V346.25H305.449ZM317.742 358.637C317.742 358.051 317.52 357.598 317.074 357.277C316.637 356.949 315.867 356.668 314.766 356.434C313.672 356.199 312.801 355.918 312.152 355.59C311.512 355.262 311.035 354.871 310.723 354.418C310.418 353.965 310.266 353.426 310.266 352.801C310.266 351.762 310.703 350.883 311.578 350.164C312.461 349.445 313.586 349.086 314.953 349.086C316.391 349.086 317.555 349.457 318.445 350.199C319.344 350.941 319.793 351.891 319.793 353.047H317.613C317.613 352.453 317.359 351.941 316.852 351.512C316.352 351.082 315.719 350.867 314.953 350.867C314.164 350.867 313.547 351.039 313.102 351.383C312.656 351.727 312.434 352.176 312.434 352.73C312.434 353.254 312.641 353.648 313.055 353.914C313.469 354.18 314.215 354.434 315.293 354.676C316.379 354.918 317.258 355.207 317.93 355.543C318.602 355.879 319.098 356.285 319.418 356.762C319.746 357.23 319.91 357.805 319.91 358.484C319.91 359.617 319.457 360.527 318.551 361.215C317.645 361.895 316.469 362.234 315.023 362.234C314.008 362.234 313.109 362.055 312.328 361.695C311.547 361.336 310.934 360.836 310.488 360.195C310.051 359.547 309.832 358.848 309.832 358.098H312C312.039 358.824 312.328 359.402 312.867 359.832C313.414 360.254 314.133 360.465 315.023 360.465C315.844 360.465 316.5 360.301 316.992 359.973C317.492 359.637 317.742 359.191 317.742 358.637ZM161.402 413.547H154.254L152.648 418H150.328L156.844 400.938H158.812L165.34 418H163.031L161.402 413.547ZM154.934 411.695H160.734L157.828 403.715L154.934 411.695ZM169.348 405.32L169.418 406.914C170.387 405.695 171.652 405.086 173.215 405.086C175.895 405.086 177.246 406.598 177.27 409.621V418H175.102V409.609C175.094 408.695 174.883 408.02 174.469 407.582C174.062 407.145 173.426 406.926 172.559 406.926C171.855 406.926 171.238 407.113 170.707 407.488C170.176 407.863 169.762 408.355 169.465 408.965V418H167.297V405.32H169.348ZM188.367 418C188.242 417.75 188.141 417.305 188.062 416.664C187.055 417.711 185.852 418.234 184.453 418.234C183.203 418.234 182.176 417.883 181.371 417.18C180.574 416.469 180.176 415.57 180.176 414.484C180.176 413.164 180.676 412.141 181.676 411.414C182.684 410.68 184.098 410.312 185.918 410.312H188.027V409.316C188.027 408.559 187.801 407.957 187.348 407.512C186.895 407.059 186.227 406.832 185.344 406.832C184.57 406.832 183.922 407.027 183.398 407.418C182.875 407.809 182.613 408.281 182.613 408.836H180.434C180.434 408.203 180.656 407.594 181.102 407.008C181.555 406.414 182.164 405.945 182.93 405.602C183.703 405.258 184.551 405.086 185.473 405.086C186.934 405.086 188.078 405.453 188.906 406.188C189.734 406.914 190.164 407.918 190.195 409.199V415.035C190.195 416.199 190.344 417.125 190.641 417.812V418H188.367ZM184.77 416.348C185.449 416.348 186.094 416.172 186.703 415.82C187.312 415.469 187.754 415.012 188.027 414.449V411.848H186.328C183.672 411.848 182.344 412.625 182.344 414.18C182.344 414.859 182.57 415.391 183.023 415.773C183.477 416.156 184.059 416.348 184.77 416.348ZM195.949 418H193.781V400H195.949V418ZM203.578 414.824L206.531 405.32H208.852L203.754 419.957C202.965 422.066 201.711 423.121 199.992 423.121L199.582 423.086L198.773 422.934V421.176L199.359 421.223C200.094 421.223 200.664 421.074 201.07 420.777C201.484 420.48 201.824 419.938 202.09 419.148L202.57 417.859L198.047 405.32H200.414L203.578 414.824ZM218.18 414.637C218.18 414.051 217.957 413.598 217.512 413.277C217.074 412.949 216.305 412.668 215.203 412.434C214.109 412.199 213.238 411.918 212.59 411.59C211.949 411.262 211.473 410.871 211.16 410.418C210.855 409.965 210.703 409.426 210.703 408.801C210.703 407.762 211.141 406.883 212.016 406.164C212.898 405.445 214.023 405.086 215.391 405.086C216.828 405.086 217.992 405.457 218.883 406.199C219.781 406.941 220.23 407.891 220.23 409.047H218.051C218.051 408.453 217.797 407.941 217.289 407.512C216.789 407.082 216.156 406.867 215.391 406.867C214.602 406.867 213.984 407.039 213.539 407.383C213.094 407.727 212.871 408.176 212.871 408.73C212.871 409.254 213.078 409.648 213.492 409.914C213.906 410.18 214.652 410.434 215.73 410.676C216.816 410.918 217.695 411.207 218.367 411.543C219.039 411.879 219.535 412.285 219.855 412.762C220.184 413.23 220.348 413.805 220.348 414.484C220.348 415.617 219.895 416.527 218.988 417.215C218.082 417.895 216.906 418.234 215.461 418.234C214.445 418.234 213.547 418.055 212.766 417.695C211.984 417.336 211.371 416.836 210.926 416.195C210.488 415.547 210.27 414.848 210.27 414.098H212.438C212.477 414.824 212.766 415.402 213.305 415.832C213.852 416.254 214.57 416.465 215.461 416.465C216.281 416.465 216.938 416.301 217.43 415.973C217.93 415.637 218.18 415.191 218.18 414.637ZM225.527 418H223.359V405.32H225.527V418ZM223.184 401.957C223.184 401.605 223.289 401.309 223.5 401.066C223.719 400.824 224.039 400.703 224.461 400.703C224.883 400.703 225.203 400.824 225.422 401.066C225.641 401.309 225.75 401.605 225.75 401.957C225.75 402.309 225.641 402.602 225.422 402.836C225.203 403.07 224.883 403.188 224.461 403.188C224.039 403.188 223.719 403.07 223.5 402.836C223.289 402.602 223.184 402.309 223.184 401.957ZM236.391 414.637C236.391 414.051 236.168 413.598 235.723 413.277C235.285 412.949 234.516 412.668 233.414 412.434C232.32 412.199 231.449 411.918 230.801 411.59C230.16 411.262 229.684 410.871 229.371 410.418C229.066 409.965 228.914 409.426 228.914 408.801C228.914 407.762 229.352 406.883 230.227 406.164C231.109 405.445 232.234 405.086 233.602 405.086C235.039 405.086 236.203 405.457 237.094 406.199C237.992 406.941 238.441 407.891 238.441 409.047H236.262C236.262 408.453 236.008 407.941 235.5 407.512C235 407.082 234.367 406.867 233.602 406.867C232.812 406.867 232.195 407.039 231.75 407.383C231.305 407.727 231.082 408.176 231.082 408.73C231.082 409.254 231.289 409.648 231.703 409.914C232.117 410.18 232.863 410.434 233.941 410.676C235.027 410.918 235.906 411.207 236.578 411.543C237.25 411.879 237.746 412.285 238.066 412.762C238.395 413.23 238.559 413.805 238.559 414.484C238.559 415.617 238.105 416.527 237.199 417.215C236.293 417.895 235.117 418.234 233.672 418.234C232.656 418.234 231.758 418.055 230.977 417.695C230.195 417.336 229.582 416.836 229.137 416.195C228.699 415.547 228.48 414.848 228.48 414.098H230.648C230.688 414.824 230.977 415.402 231.516 415.832C232.062 416.254 232.781 416.465 233.672 416.465C234.492 416.465 235.148 416.301 235.641 415.973C236.141 415.637 236.391 415.191 236.391 414.637ZM151.98 474V456.938H157.559C159.41 456.938 160.801 457.32 161.73 458.086C162.668 458.852 163.137 459.984 163.137 461.484C163.137 462.281 162.91 462.988 162.457 463.605C162.004 464.215 161.387 464.688 160.605 465.023C161.527 465.281 162.254 465.773 162.785 466.5C163.324 467.219 163.594 468.078 163.594 469.078C163.594 470.609 163.098 471.812 162.105 472.688C161.113 473.562 159.711 474 157.898 474H151.98ZM154.23 466.02V472.16H157.945C158.992 472.16 159.816 471.891 160.418 471.352C161.027 470.805 161.332 470.055 161.332 469.102C161.332 467.047 160.215 466.02 157.98 466.02H154.23ZM154.23 464.215H157.629C158.613 464.215 159.398 463.969 159.984 463.477C160.578 462.984 160.875 462.316 160.875 461.473C160.875 460.535 160.602 459.855 160.055 459.434C159.508 459.004 158.676 458.789 157.559 458.789H154.23V464.215ZM166.02 467.543C166.02 466.301 166.262 465.184 166.746 464.191C167.238 463.199 167.918 462.434 168.785 461.895C169.66 461.355 170.656 461.086 171.773 461.086C173.5 461.086 174.895 461.684 175.957 462.879C177.027 464.074 177.562 465.664 177.562 467.648V467.801C177.562 469.035 177.324 470.145 176.848 471.129C176.379 472.105 175.703 472.867 174.82 473.414C173.945 473.961 172.938 474.234 171.797 474.234C170.078 474.234 168.684 473.637 167.613 472.441C166.551 471.246 166.02 469.664 166.02 467.695V467.543ZM168.199 467.801C168.199 469.207 168.523 470.336 169.172 471.188C169.828 472.039 170.703 472.465 171.797 472.465C172.898 472.465 173.773 472.035 174.422 471.176C175.07 470.309 175.395 469.098 175.395 467.543C175.395 466.152 175.062 465.027 174.398 464.168C173.742 463.301 172.867 462.867 171.773 462.867C170.703 462.867 169.84 463.293 169.184 464.145C168.527 464.996 168.199 466.215 168.199 467.801ZM179.707 467.543C179.707 466.301 179.949 465.184 180.434 464.191C180.926 463.199 181.605 462.434 182.473 461.895C183.348 461.355 184.344 461.086 185.461 461.086C187.188 461.086 188.582 461.684 189.645 462.879C190.715 464.074 191.25 465.664 191.25 467.648V467.801C191.25 469.035 191.012 470.145 190.535 471.129C190.066 472.105 189.391 472.867 188.508 473.414C187.633 473.961 186.625 474.234 185.484 474.234C183.766 474.234 182.371 473.637 181.301 472.441C180.238 471.246 179.707 469.664 179.707 467.695V467.543ZM181.887 467.801C181.887 469.207 182.211 470.336 182.859 471.188C183.516 472.039 184.391 472.465 185.484 472.465C186.586 472.465 187.461 472.035 188.109 471.176C188.758 470.309 189.082 469.098 189.082 467.543C189.082 466.152 188.75 465.027 188.086 464.168C187.43 463.301 186.555 462.867 185.461 462.867C184.391 462.867 183.527 463.293 182.871 464.145C182.215 464.996 181.887 466.215 181.887 467.801ZM197.508 468.129L196.148 469.547V474H193.98V456H196.148V466.887L197.309 465.492L201.258 461.32H203.895L198.961 466.617L204.469 474H201.926L197.508 468.129ZM208.488 474H206.32V461.32H208.488V474ZM206.145 457.957C206.145 457.605 206.25 457.309 206.461 457.066C206.68 456.824 207 456.703 207.422 456.703C207.844 456.703 208.164 456.824 208.383 457.066C208.602 457.309 208.711 457.605 208.711 457.957C208.711 458.309 208.602 458.602 208.383 458.836C208.164 459.07 207.844 459.188 207.422 459.188C207 459.188 206.68 459.07 206.461 458.836C206.25 458.602 206.145 458.309 206.145 457.957ZM214.02 461.32L214.09 462.914C215.059 461.695 216.324 461.086 217.887 461.086C220.566 461.086 221.918 462.598 221.941 465.621V474H219.773V465.609C219.766 464.695 219.555 464.02 219.141 463.582C218.734 463.145 218.098 462.926 217.23 462.926C216.527 462.926 215.91 463.113 215.379 463.488C214.848 463.863 214.434 464.355 214.137 464.965V474H211.969V461.32H214.02ZM224.695 467.555C224.695 465.578 225.152 464.008 226.066 462.844C226.98 461.672 228.191 461.086 229.699 461.086C231.246 461.086 232.453 461.633 233.32 462.727L233.426 461.32H235.406V473.695C235.406 475.336 234.918 476.629 233.941 477.574C232.973 478.52 231.668 478.992 230.027 478.992C229.113 478.992 228.219 478.797 227.344 478.406C226.469 478.016 225.801 477.48 225.34 476.801L226.465 475.5C227.395 476.648 228.531 477.223 229.875 477.223C230.93 477.223 231.75 476.926 232.336 476.332C232.93 475.738 233.227 474.902 233.227 473.824V472.734C232.359 473.734 231.176 474.234 229.676 474.234C228.191 474.234 226.988 473.637 226.066 472.441C225.152 471.246 224.695 469.617 224.695 467.555ZM226.875 467.801C226.875 469.23 227.168 470.355 227.754 471.176C228.34 471.988 229.16 472.395 230.215 472.395C231.582 472.395 232.586 471.773 233.227 470.531V464.742C232.562 463.531 231.566 462.926 230.238 462.926C229.184 462.926 228.359 463.336 227.766 464.156C227.172 464.977 226.875 466.191 226.875 467.801ZM246.07 470.637C246.07 470.051 245.848 469.598 245.402 469.277C244.965 468.949 244.195 468.668 243.094 468.434C242 468.199 241.129 467.918 240.48 467.59C239.84 467.262 239.363 466.871 239.051 466.418C238.746 465.965 238.594 465.426 238.594 464.801C238.594 463.762 239.031 462.883 239.906 462.164C240.789 461.445 241.914 461.086 243.281 461.086C244.719 461.086 245.883 461.457 246.773 462.199C247.672 462.941 248.121 463.891 248.121 465.047H245.941C245.941 464.453 245.688 463.941 245.18 463.512C244.68 463.082 244.047 462.867 243.281 462.867C242.492 462.867 241.875 463.039 241.43 463.383C240.984 463.727 240.762 464.176 240.762 464.73C240.762 465.254 240.969 465.648 241.383 465.914C241.797 466.18 242.543 466.434 243.621 466.676C244.707 466.918 245.586 467.207 246.258 467.543C246.93 467.879 247.426 468.285 247.746 468.762C248.074 469.23 248.238 469.805 248.238 470.484C248.238 471.617 247.785 472.527 246.879 473.215C245.973 473.895 244.797 474.234 243.352 474.234C242.336 474.234 241.438 474.055 240.656 473.695C239.875 473.336 239.262 472.836 238.816 472.195C238.379 471.547 238.16 470.848 238.16 470.098H240.328C240.367 470.824 240.656 471.402 241.195 471.832C241.742 472.254 242.461 472.465 243.352 472.465C244.172 472.465 244.828 472.301 245.32 471.973C245.82 471.637 246.07 471.191 246.07 470.637Z" fill="black"/>
<defs>
<filter id="filter0_d" x="10" y="73" width="416" height="582" filterUnits="userSpaceOnUse" color-interpolation-filters="sRGB">
<feFlood flood-opacity="0" result="BackgroundImageFix"/>
<feColorMatrix in="SourceAlpha" type="matrix" values="0 0 0 0 0 0 0 0 0 0 0 0 0 0 0 0 0 0 127 0"/>
<feMorphology radius="5" operator="dilate" in="SourceAlpha" result="effect1_dropShadow"/>
<feOffset dx="4" dy="4"/>
<feGaussianBlur stdDeviation="5"/>
<feColorMatrix type="matrix" values="0 0 0 0 0 0 0 0 0 0 0 0 0 0 0 0 0 0 0.25 0"/>
<feBlend mode="normal" in2="BackgroundImageFix" result="effect1_dropShadow"/>
<feBlend mode="normal" in="SourceGraphic" in2="effect1_dropShadow" result="shape"/>
</filter>
</defs>
</svg>
